Coordinates
version=1
nRows=12
nColumns=24
inDegrees=yes

Units are S.I. units (second, meters, Newtons, ...)
Angles are in degrees.

endheader
time	pelvis_tilt	pelvis_list	pelvis_rotation	pelvis_tx	pelvis_ty	pelvis_tz	hip_flexion_r	hip_adduction_r	hip_rotation_r	knee_angle_r	ankle_angle_r	subtalar_angle_r	mtp_angle_r	hip_flexion_l	hip_adduction_l	hip_rotation_l	knee_angle_l	ankle_angle_l	subtalar_angle_l	mtp_angle_l	lumbar_extension	lumbar_bending	lumbar_rotation
      6.27000000	      1.74895857	      6.58603171	    -13.82932471	      1.61182320	      0.66796078	     -0.10863995	      2.36279401	     -6.97847882	      5.39023988	    -60.12404289	    -25.67688525	    -18.31870533	      0.00000000	     14.88747528	     10.87330580	     -4.47693753	    -18.50397048	      8.00774353	    -15.02412379	      0.00000000	     -7.82106462	     -7.14915420	     12.05840445
      6.28000000	      1.95569991	      6.62387745	    -13.27639053	      1.62080679	      0.66919440	     -0.10959584	      4.55898733	     -6.68819100	      5.34399739	    -62.99881988	    -23.82775985	    -20.37873964	      0.00000000	     13.61620529	     11.35469360	     -3.82214023	    -18.15366231	      8.70983189	    -14.63267488	      0.00000000	     -8.26172284	     -7.20162865	     11.08856726
      6.29000000	      2.03373968	      6.49492827	    -12.59018751	      1.62967957	      0.67035076	     -0.11061777	      6.75124691	     -6.18015026	      5.21042134	    -65.37916938	    -21.32897674	    -22.21796158	      0.00000000	     12.49328167	     11.63182727	     -3.02054934	    -17.93975933	      9.41593594	    -14.22240945	      0.00000000	     -8.61278276	     -7.03031223	     10.09591560
      6.30000000	      2.02777066	      6.23011473	    -11.82782409	      1.63844476	      0.67143306	     -0.11168432	      8.93695573	     -5.53041292	      5.01340948	    -67.31579281	    -18.03007853	    -23.18718030	      0.00000000	     11.47503883	     11.72945601	     -2.18156161	    -17.82621388	     10.07783461	    -13.76316963	      0.00000000	     -8.90821486	     -6.68969644	      9.20482620
      6.31000000	      2.00831691	      5.90019298	    -11.00223718	      1.64714999	      0.67246468	     -0.11279726	     11.04093050	     -4.84199436	      4.76940940	    -68.78975375	    -14.67416368	    -23.68797499	      0.00000000	     10.44940623	     11.74539442	     -1.26938322	    -17.69563413	     10.73937431	    -13.41502453	      0.00000000	     -9.19757216	     -6.26857619	      8.29398135
      6.32000000	      1.92149980	      5.53671200	    -10.13168825	      1.65578238	      0.67337394	     -0.11393242	     13.13519683	     -4.14746192	      4.49635368	    -69.83096481	    -11.44927987	    -23.69862453	      0.00000000	      9.48756828	     11.68242102	     -0.37851939	    -17.54767943	     11.38938960	    -13.05359545	      0.00000000	     -9.40464798	     -5.79866551	      7.41971894
      6.33000000	      1.78892256	      5.16586492	     -9.23282887	      1.66434461	      0.67416037	     -0.11506111	     15.19503751	     -3.48581815	      4.20737734	    -70.44381412	     -8.56431743	    -23.38516869	      0.00000000	      8.56699273	     11.56563740	      0.46154792	    -17.36423461	     12.04637935	    -12.62743858	      0.00000000	     -9.54517894	     -5.31920112	      6.58242305
      6.34000000	      1.61783487	      4.80047684	     -8.30779154	      1.67284882	      0.67482721	     -0.11616001	     17.19938196	     -2.87818885	      3.90252146	    -70.62036205	     -6.14737207	    -22.95852956	      0.00000000	      7.67588725	     11.40787319	      1.25492425	    -17.13133861	     12.67546238	    -12.12079159	      0.00000000	     -9.61892619	     -4.84997392	      5.77166970
      6.35000000	      1.43528774	      4.45965220	     -7.37431609	      1.68129195	      0.67537218	     -0.11719785	     19.11601699	     -2.34990050	      3.59871070	    -70.37053562	     -4.14088498	    -22.53455282	      0.00000000	      6.79920446	     11.23330019	      1.99250038	    -16.86743666	     13.31095550	    -11.56974192	      0.00000000	     -9.65981567	     -4.42673715	      5.00031495
      6.36000000	      1.26224289	      4.15015201	     -6.44678784	      1.68966879	      0.67579531	     -0.11815115	     20.91263538	     -1.89953488	      3.31957833	    -69.69994227	     -2.46594694	    -22.20667191	      0.00000000	      5.92928513	     11.05546650	      2.69502787	    -16.60499716	     13.97033793	    -10.98626001	      0.00000000	     -9.69749323	     -4.06341088	      4.27186217
      6.37000000	      1.10662915	      3.85922036	     -5.51065662	      1.69799346	      0.67611620	     -0.11903012	     22.55479722	     -1.51752517	      3.05161954	    -68.59306340	     -1.14628239	    -22.11686052	      0.00000000	      5.04983279	     10.86650128	      3.41179005	    -16.34018164	     14.61331078	    -10.39253857	      0.00000000	     -9.74048724	     -3.74354840	      3.57777512
      6.38000000	      0.97776598	      3.59398000	     -4.57726185	      1.70628133	      0.67633702	     -0.11983095	     24.01768840	     -1.20216745	      2.81583362	    -67.05309540	     -0.16347622	    -22.33870734	      0.00000000	      4.14971167	     10.67849711	      4.16551971	    -16.07267898	     15.23120686	     -9.85464763	      0.00000000	     -9.79850979	     -3.47461757	      2.92624617
